<svg width="21" height="20" viewBox="0 0 21 20" fill="none" xmlns="http://www.w3.org/2000/svg">
    <path d="M18.6716 8.36789H18.0003V8.33331H10.5003V11.6666H15.2099C14.5228 13.6071 12.6766 15 10.5003 15C7.73908 15 5.50033 12.7612 5.50033 9.99997C5.50033 7.23872 7.73908 4.99997 10.5003 4.99997C11.7749 4.99997 12.9345 5.48081 13.8174 6.26622L16.1745 3.90914C14.6862 2.52206 12.6953 1.66664 10.5003 1.66664C5.89824 1.66664 2.16699 5.39789 2.16699 9.99997C2.16699 14.6021 5.89824 18.3333 10.5003 18.3333C15.1024 18.3333 18.8337 14.6021 18.8337 9.99997C18.8337 9.44122 18.7762 8.89581 18.6716 8.36789Z" fill="#FFC107"/>
    <path d="M3.12793 6.12122L5.86585 8.12914C6.60668 6.29497 8.40085 4.99997 10.5004 4.99997C11.775 4.99997 12.9346 5.48081 13.8175 6.26622L16.1746 3.90914C14.6863 2.52206 12.6954 1.66664 10.5004 1.66664C7.2996 1.66664 4.52376 3.47372 3.12793 6.12122Z" fill="#FF3D00"/>
    <path d="M10.4998 18.3333C12.6523 18.3333 14.6081 17.5095 16.0869 16.17L13.5077 13.9875C12.6429 14.6451 11.5862 15.0008 10.4998 15C8.3323 15 6.49189 13.6179 5.79855 11.6891L3.08105 13.7829C4.46022 16.4816 7.26105 18.3333 10.4998 18.3333Z" fill="#4CAF50"/>
    <path d="M18.6713 8.36794H18V8.33336H10.5V11.6667H15.2096C14.8809 12.5902 14.2889 13.3972 13.5067 13.9879L13.5079 13.9871L16.0871 16.1696C15.9046 16.3354 18.8333 14.1667 18.8333 10C18.8333 9.44128 18.7758 8.89586 18.6713 8.36794Z" fill="#1976D2"/>
</svg>
